<?xml version="1.0" standalone="no"?>
<!DOCTYPE svg PUBLIC "-//W3C//DTD SVG 20010904//EN"
 "http://www.w3.org/TR/2001/REC-SVG-20010904/DTD/svg10.dtd">
<svg version="1.0" xmlns="http://www.w3.org/2000/svg"
 width="741.000000pt" height="741.000000pt" viewBox="0 0 741.000000 741.000000"
 preserveAspectRatio="xMidYMid meet">
<metadata>
Created by potrace 1.11, written by Peter Selinger 2001-2013
</metadata>
<g transform="translate(0.000000,741.000000) scale(0.100000,-0.100000)"
fill="#000000" stroke="none">
<path d="M3872 5390 c-12 -11 -29 -34 -37 -50 -8 -16 -23 -35 -33 -42 -9 -7
-22 -23 -27 -34 -6 -12 -30 -45 -55 -74 -46 -53 -100 -162 -105 -213 -2 -15
-8 -34 -15 -42 -6 -8 -9 -18 -6 -24 3 -5 -6 -19 -21 -31 -19 -14 -24 -23 -15
-26 17 -8 15 -21 -9 -45 -12 -12 -18 -27 -14 -38 4 -13 -11 -33 -51 -72 -31
-30 -74 -72 -97 -94 -45 -44 -20 -42 -307 -31 -297 11 -396 16 -415 20 -11 2
-54 7 -95 11 -41 4 -82 9 -90 10 -8 1 -40 6 -70 10 -30 3 -67 8 -81 11 -15 2
-47 6 -70 9 -59 8 -86 12 -166 30 -265 58 -269 59 -508 39 -136 -11 -434 -1
-601 21 -115 14 -482 132 -731 235 -20 8 -60 6 -70 -4 -10 -9 22 -44 71 -78
56 -40 149 -79 288 -123 48 -15 95 -33 105 -41 16 -13 10 -14 -52 -8 -38 3
-72 8 -75 9 -3 2 -26 6 -50 10 -35 4 -129 22 -160 30 -30 8 -157 49 -165 53
-20 12 -56 10 -70 -4 -13 -14 -13 -18 3 -39 43 -60 306 -150 495 -171 28 -3
56 -9 61 -14 19 -19 -41 -30 -195 -35 -206 -7 -334 -18 -402 -36 -31 -8 -36
-13 -27 -24 10 -12 56 -25 110 -31 163 -17 197 -18 406 -8 179 8 175 -10 -16
-67 -89 -26 -379 -103 -432 -114 -20 -4 -58 -24 -58 -30 0 -3 12 -11 28 -18
59 -30 280 -16 377 24 17 7 35 14 40 15 6 2 42 15 80 29 125 44 143 29 32 -27
-85 -44 -217 -99 -217 -91 0 3 -6 1 -12 -5 -12 -9 -81 -31 -205 -65 -53 -15
-93 -46 -72 -57 61 -34 238 -34 311 -1 147 66 263 111 286 111 26 -1 25 -2
-23 -45 -27 -25 -55 -45 -61 -45 -7 0 -14 -4 -16 -8 -2 -5 -65 -44 -142 -87
-161 -92 -182 -107 -171 -125 13 -21 166 -6 223 21 26 13 52 28 57 35 14 16
134 98 175 119 59 31 56 1 -6 -51 -31 -27 -68 -59 -81 -70 -13 -12 -39 -32
-58 -45 -55 -38 -71 -119 -24 -119 11 0 49 18 84 41 66 41 94 45 96 12 0 -10
2 -36 3 -57 4 -45 29 -70 56 -56 49 26 96 13 113 -32 10 -29 51 -50 78 -40 52
20 76 5 139 -82 30 -42 51 -45 78 -11 27 35 64 32 96 -6 14 -17 26 -35 26 -40
0 -4 12 -16 26 -25 25 -17 26 -16 51 10 l25 27 19 -22 c10 -12 24 -34 31 -50
7 -15 23 -33 35 -40 19 -10 26 -9 41 5 26 23 41 14 80 -44 34 -52 59 -63 83
-34 18 22 64 11 100 -26 36 -36 42 -37 61 -9 17 27 44 20 89 -22 60 -56 119
-73 119 -35 0 21 36 38 63 31 12 -4 43 -29 69 -57 52 -56 81 -61 86 -15 4 37
37 36 78 -2 17 -16 49 -38 72 -50 l41 -21 21 30 c12 17 25 30 30 30 5 0 23
-14 40 -30 46 -45 89 -37 125 24 11 18 46 28 61 18 5 -4 14 -16 20 -27 10 -18
20 -21 53 -16 5 0 14 14 21 31 7 16 21 32 32 35 19 7 68 -18 68 -34 0 -12 48
-31 63 -25 8 3 21 20 30 39 17 36 41 39 52 6 3 -10 16 -23 29 -29 25 -11 61 1
93 33 45 46 93 56 93 21 0 -26 -78 -71 -295 -172 -44 -20 -104 -53 -132 -73
-60 -41 -65 -61 -30 -126 20 -36 26 -40 62 -40 58 0 68 -10 60 -59 -16 -102
-16 -115 -1 -145 17 -33 34 -33 71 -1 36 31 62 41 73 27 16 -19 28 -71 31
-139 0 -14 13 -40 27 -57 31 -38 49 -31 94 34 17 25 37 45 44 45 14 0 48 -58
66 -113 15 -47 75 -108 103 -103 23 3 47 32 47 57 0 9 6 22 14 28 16 14 23 8
76 -68 37 -53 81 -85 118 -87 31 -1 39 16 56 115 2 8 13 18 25 23 19 7 31 1
69 -37 58 -57 88 -67 114 -35 11 14 17 32 14 44 -12 50 51 72 94 34 70 -62 96
-54 72 23 -12 36 -13 52 -5 60 14 14 88 3 106 -16 7 -7 24 -16 37 -20 14 -4
30 -11 35 -16 6 -4 17 -4 24 0 14 9 12 32 -10 110 -17 60 -2 71 92 64 64 -4
69 -3 69 16 0 11 -15 39 -33 63 -46 61 -69 99 -64 104 14 15 56 10 99 -10 59
-28 80 -25 103 18 23 43 18 53 -85 169 -70 79 -193 197 -211 202 -18 6 -33 34
-24 43 6 6 75 -30 75 -39 0 -6 41 -19 75 -24 6 -1 26 17 47 39 l36 41 35 -38
c19 -21 46 -40 61 -43 31 -5 66 11 66 31 0 8 8 19 19 24 15 8 23 5 45 -19 14
-17 32 -30 39 -31 6 0 20 -2 30 -4 12 -2 25 7 35 26 18 31 55 39 69 15 10 -16
63 -42 83 -40 8 1 26 2 38 3 14 1 26 9 29 20 7 29 54 37 73 13 42 -52 120 -46
145 11 15 32 55 33 85 2 38 -40 100 -30 100 17 0 26 36 23 70 -5 37 -31 109
-36 134 -8 10 11 15 24 12 29 -3 5 1 17 8 27 16 22 71 23 95 1 21 -19 62 -21
79 -4 7 7 12 24 12 39 0 15 6 29 14 32 18 7 83 -10 91 -23 17 -27 90 1 104 40
11 32 46 42 87 25 57 -23 99 2 85 51 -16 58 4 68 60 30 26 -18 46 -24 70 -21
48 6 64 26 51 63 -8 25 -8 32 5 36 21 8 63 7 63 -1 0 -5 11 -13 25 -19 42 -20
53 15 33 107 -6 27 37 20 72 -12 47 -42 78 -53 107 -38 17 9 22 20 21 48 -1
39 -26 111 -38 111 -10 0 -34 59 -27 67 7 6 89 -40 115 -65 35 -36 91 -72 111
-72 11 0 27 10 35 21 27 40 -7 92 -104 159 -68 47 -122 99 -114 111 7 12 39
12 62 0 9 -5 42 -21 72 -37 30 -15 95 -52 144 -81 95 -58 146 -76 146 -51 0
23 -54 92 -92 119 -18 13 -35 26 -38 29 -3 4 -49 33 -102 64 -108 63 -161 103
-153 116 7 11 121 -28 250 -84 93 -41 166 -65 205 -68 48 -3 59 9 33 38 -25
26 -347 190 -422 214 -127 40 -174 77 -86 67 25 -3 49 -8 53 -11 5 -3 22 -7
38 -10 16 -3 83 -21 149 -40 128 -37 222 -43 311 -17 38 10 79 40 58 42 -12 1
-30 5 -84 18 -72 19 -75 19 -75 21 0 1 -7 3 -15 5 -8 2 -26 6 -40 9 -14 3 -36
7 -50 10 -40 9 -131 25 -180 32 -25 3 -52 7 -60 8 -8 2 -41 10 -74 20 -97 29
-49 46 124 46 58 -1 141 -1 185 -1 85 -1 158 21 218 63 27 19 28 22 13 34 -12
8 -42 10 -94 7 -42 -3 -164 -6 -270 -8 -190 -2 -278 7 -303 32 -17 17 11 22
169 28 119 5 185 10 232 18 39 7 152 50 164 63 8 8 19 14 25 14 16 0 32 35 20
47 -11 11 -77 7 -124 -7 -60 -17 -184 -34 -335 -45 -96 -7 -116 -8 -182 -6
-72 2 -35 27 67 45 17 3 57 11 90 17 195 35 328 77 340 107 21 55 -103 54
-350 -3 -55 -13 -120 -26 -145 -31 -25 -4 -47 -8 -50 -9 -54 -12 -73 -16 -115
-20 -300 -31 -725 -50 -960 -41 -90 3 -152 -6 -305 -43 -47 -11 -108 -23 -135
-26 -28 -3 -77 -8 -110 -12 -100 -11 -557 -4 -730 11 -48 4 -66 15 -139 85
-88 84 -126 135 -119 161 3 11 0 27 -7 35 -6 8 -9 19 -5 25 3 5 3 16 -2 23 -8
12 -10 23 -17 90 -2 21 -9 43 -15 50 -7 9 -7 17 0 24 6 6 3 26 -12 59 -26 61
-23 142 9 202 l21 41 -22 16 c-29 21 -59 19 -85 -5z"/>
</g>
</svg>
